# xmcd CD database file
#
# Track frame offsets:
#	182
#	16805
#	46285
#	65475
#	93357
#	113770
#	136802
#	152300
#	178950
#	213872
#	257347
#	281520
#
# Disc length: 4163 seconds
#
# Revision: 2
# Processed by: cddbd v1.5.2PL0 Copyright (c) Steve Scherf et al.
# Submitted via: CDex 1.51
#
DISCID=9610410c
DTITLE=Walker, T. Bone and Roy Gaines - Feeling the Blues
DYEAR=1975
DGENRE=Blues
TTITLE0=I hate to see you go
TTITLE1=Ain´t that cold baby
TTITLE2=Leaving you behind
TTITLE3=Felling the blues
TTITLE4=Gee baby ain´t I good to you
TTITLE5=I want a little girl
TTITLE6=Someone is going to mistrait you
TTITLE7=Late Blues
TTITLE8=Superman
TTITLE9=Once I was a gambler
TTITLE10=Stormy monday blues
TTITLE11=Happy birthday blues
EXTD=YEAR: 1975
EXTT0=
EXTT1=
EXTT2=
EXTT3=
EXTT4=
EXTT5=
EXTT6=
EXTT7=
EXTT8=
EXTT9=
EXTT10=
EXTT11=
PLAYORDER=
